<?xml version="1.0" standalone="no"?>
<!DOCTYPE svg PUBLIC "-//W3C//DTD SVG 20010904//EN"
 "http://www.w3.org/TR/2001/REC-SVG-20010904/DTD/svg10.dtd">
<svg version="1.0" xmlns="http://www.w3.org/2000/svg"
 width="260.000000pt" height="260.000000pt" viewBox="0 0 260.000000 260.000000"
 preserveAspectRatio="xMidYMid meet">
<metadata>
Created by potrace 1.11, written by Peter Selinger 2001-2013
</metadata>
<g transform="translate(0.000000,260.000000) scale(0.100000,-0.100000)"
fill="#000000" stroke="none">
<path d="M570 2205 c0 -104 2 -125 15 -125 13 0 15 21 15 125 0 104 -2 125
-15 125 -13 0 -15 -21 -15 -125z"/>
<path d="M480 2305 c0 -8 9 -15 20 -15 11 0 20 7 20 15 0 8 -9 15 -20 15 -11
0 -20 -7 -20 -15z"/>
<path d="M297 2253 c-4 -3 -7 -44 -7 -90 0 -67 3 -83 15 -83 12 0 15 14 15 65
0 60 2 66 25 77 40 18 55 -3 55 -78 0 -50 3 -64 15 -64 12 0 15 14 15 70 0 57
-4 74 -20 90 -21 21 -33 23 -65 11 -11 -5 -25 -5 -31 0 -6 5 -14 6 -17 2z"/>
<path d="M480 2165 c0 -69 3 -85 15 -85 12 0 15 16 15 85 0 69 -3 85 -15 85
-12 0 -15 -16 -15 -85z"/>
<path d="M1300 1909 c0 -54 -2 -60 -17 -54 -48 21 -72 17 -103 -13 -27 -27
-30 -37 -30 -89 0 -94 46 -137 115 -109 21 9 37 11 40 5 4 -5 13 -9 21 -9 12
0 14 28 14 165 0 158 -1 165 -20 165 -18 0 -20 -7 -20 -61z m-18 -96 c28 -25
25 -107 -4 -127 -12 -9 -30 -16 -40 -16 -25 0 -48 39 -48 80 0 68 49 102 92
63z"/>
<path d="M1677 1952 c-9 -10 -17 -33 -17 -50 0 -22 -6 -32 -20 -37 -11 -3 -20
-13 -20 -21 0 -8 9 -14 20 -14 19 0 20 -7 20 -95 0 -88 1 -95 20 -95 19 0 20
7 20 95 l0 95 45 0 45 0 0 -95 c0 -88 1 -95 20 -95 19 0 20 7 20 110 l0 110
-66 0 -65 0 3 33 c2 27 8 33 31 35 20 3 27 8 25 20 -5 25 -60 28 -81 4z"/>
<path d="M2537 1964 c-4 -4 -7 -32 -7 -62 0 -48 -2 -53 -17 -47 -48 21 -72 17
-103 -13 -27 -27 -30 -37 -30 -91 0 -49 4 -65 24 -87 28 -34 84 -38 116 -9 18
16 20 16 20 2 0 -10 7 -17 15 -17 13 0 15 24 17 150 0 83 1 156 2 162 1 14
-26 23 -37 12z m-25 -151 c28 -25 25 -107 -4 -127 -46 -33 -76 -14 -85 53 -10
73 43 116 89 74z"/>
<path d="M1790 1931 c0 -26 17 -36 35 -21 18 15 8 40 -16 40 -12 0 -19 -7 -19
-19z"/>
<path d="M654 1856 c-3 -9 -4 -52 -2 -96 2 -66 7 -83 25 -101 27 -27 75 -29
103 -4 18 16 20 16 20 2 0 -10 8 -17 20 -17 20 0 21 5 18 112 -3 98 -5 113
-20 116 -16 3 -18 -6 -18 -76 0 -69 -3 -81 -23 -100 -52 -49 -75 -23 -79 88
-3 71 -6 85 -21 88 -9 2 -20 -4 -23 -12z"/>
<path d="M917 1863 c-4 -3 -7 -55 -7 -115 0 -101 1 -108 20 -108 18 0 20 7 20
78 0 85 14 112 58 112 31 0 42 -29 42 -114 0 -69 2 -76 20 -76 19 0 20 7 20
90 0 83 -2 93 -25 115 -27 28 -61 32 -92 10 -19 -13 -22 -13 -27 0 -6 16 -18
19 -29 8z"/>
<path d="M1451 1856 c-33 -18 -50 -53 -51 -104 0 -62 22 -99 68 -111 46 -12
106 -1 110 21 3 14 -4 16 -51 11 -49 -5 -56 -3 -71 18 -30 43 -22 49 59 49
l75 0 0 38 c-1 74 -73 115 -139 78z m87 -38 c7 -7 12 -20 12 -30 0 -15 -9 -18
-55 -18 -41 0 -55 4 -55 14 0 38 70 62 98 34z"/>
<path d="M1907 1863 c-4 -3 -7 -55 -7 -115 0 -101 1 -108 20 -108 17 0 19 8
22 82 3 78 4 83 30 98 49 27 63 7 66 -94 3 -78 5 -86 22 -86 18 0 20 7 20 94
0 90 -1 96 -26 115 -31 25 -61 27 -91 6 -19 -13 -22 -13 -27 0 -6 16 -18 19
-29 8z"/>
<path d="M2191 1856 c-33 -18 -50 -53 -51 -104 0 -61 22 -99 66 -111 38 -11
90 -5 112 12 25 20 10 27 -47 21 -53 -6 -59 -5 -75 17 -30 43 -22 49 59 49 76
0 80 2 76 40 -4 43 -14 61 -41 75 -35 18 -67 19 -99 1z m87 -38 c7 -7 12 -20
12 -30 0 -15 -9 -18 -55 -18 -59 0 -63 4 -39 38 17 24 62 30 82 10z"/>
<path d="M217 1513 c-4 -3 -7 -57 -7 -120 0 -92 3 -113 15 -113 11 0 15 20 17
97 l3 98 50 -95 c38 -72 55 -96 73 -98 22 -3 22 -2 22 117 0 101 -2 121 -15
121 -12 0 -15 -18 -15 -97 l0 -98 -46 85 c-25 46 -50 90 -56 97 -11 14 -31 17
-41 6z"/>
<path d="M637 1513 c-4 -3 -7 -57 -7 -120 0 -92 3 -113 15 -113 11 0 15 20 17
96 l3 96 50 -94 c38 -70 56 -94 73 -96 22 -3 22 -2 22 117 0 101 -2 121 -15
121 -12 0 -15 -18 -15 -97 l0 -98 -46 85 c-25 46 -50 90 -56 97 -11 14 -31 17
-41 6z"/>
<path d="M468 1449 c-29 -17 -20 -26 25 -25 36 1 42 -2 45 -21 3 -19 -1 -23
-25 -23 -38 0 -73 -26 -73 -54 0 -35 21 -46 79 -44 l51 2 0 73 c0 63 -3 74
-22 87 -26 18 -55 20 -80 5z m72 -109 c0 -22 -34 -44 -56 -36 -32 12 -6 56 33
56 16 0 23 -6 23 -20z"/>
<path d="M1350 1120 c0 -143 1 -150 20 -150 19 0 20 7 20 128 l0 127 68 -125
c58 -109 70 -125 92 -125 l25 0 3 148 c2 141 2 147 -17 147 -19 0 -21 -8 -23
-117 l-3 -118 -63 118 c-58 109 -65 117 -92 117 l-30 0 0 -150z"/>
<path d="M1702 1185 c-66 -29 -82 -145 -27 -192 18 -16 39 -23 70 -23 62 0 95
30 102 93 7 63 -11 106 -53 123 -41 17 -50 17 -92 -1z m92 -47 c9 -12 16 -39
16 -60 0 -65 -57 -99 -106 -64 -23 17 -27 103 -5 129 20 25 76 22 95 -5z"/>
<path d="M1975 1183 c-20 -11 -30 -12 -33 -4 -2 6 -10 11 -18 11 -11 0 -14
-22 -14 -110 0 -103 1 -110 20 -110 18 0 20 7 20 78 0 84 14 112 56 112 36 0
44 -20 44 -107 0 -76 2 -83 20 -83 19 0 20 7 20 90 0 83 -2 93 -25 115 -28 29
-48 31 -90 8z"/>
<path d="M2205 1186 c-36 -16 -55 -52 -55 -107 0 -75 31 -108 102 -109 54 0
78 7 78 24 0 9 -15 11 -53 8 -58 -5 -87 12 -87 48 0 17 9 19 73 22 l72 3 3 31
c6 64 -69 109 -133 80z m73 -32 c12 -8 22 -24 22 -35 0 -16 -7 -19 -55 -19
-61 0 -71 14 -35 50 24 24 38 25 68 4z"/>
<path d="M987 824 c-4 -4 -7 -103 -7 -221 l0 -213 25 0 25 0 -2 217 c-3 187
-5 218 -18 221 -9 1 -19 0 -23 -4z"/>
<path d="M1137 824 c-4 -4 -7 -103 -7 -221 l0 -213 25 0 25 0 -2 217 c-3 187
-5 218 -18 221 -9 1 -19 0 -23 -4z"/>
<path d="M310 540 l0 -150 25 0 25 0 0 103 c0 95 2 105 23 124 34 32 61 36 88
14 22 -18 24 -27 27 -130 4 -111 4 -111 29 -111 l25 0 -4 126 c-3 124 -3 126
-31 150 -35 30 -94 32 -130 4 -25 -20 -25 -20 -30 0 -3 12 -14 20 -26 20 -20
0 -21 -4 -21 -150z"/>
<path d="M641 566 c4 -120 5 -127 30 -152 36 -35 92 -37 137 -6 l32 23 0 -21
c0 -16 5 -21 23 -18 22 3 22 5 22 148 l0 145 -25 0 c-25 0 -25 0 -28 -107 -3
-105 -3 -107 -31 -128 -36 -25 -63 -26 -84 -2 -12 14 -17 43 -19 127 l-3 110
-29 3 -28 4 3 -126z"/>
</g>
</svg>
