<?xml version="1.0" standalone="no"?>
<!DOCTYPE svg PUBLIC "-//W3C//DTD SVG 20010904//EN"
 "http://www.w3.org/TR/2001/REC-SVG-20010904/DTD/svg10.dtd">
<svg version="1.0" xmlns="http://www.w3.org/2000/svg"
 width="260.000000pt" height="260.000000pt" viewBox="0 0 260.000000 260.000000"
 preserveAspectRatio="xMidYMid meet">
<metadata>
Created by potrace 1.11, written by Peter Selinger 2001-2013
</metadata>
<g transform="translate(0.000000,260.000000) scale(0.100000,-0.100000)"
fill="#000000" stroke="none">
<path d="M490 1285 l0 -1225 160 0 160 0 -7 618 c-6 645 4 1392 18 1357 118
-283 269 -618 554 -1228 l350 -747 217 0 218 0 0 1225 0 1225 -155 0 -155 0
-2 -996 -3 -996 -110 250 c-61 138 -268 586 -460 996 l-350 745 -217 1 -218 0
0 -1225z"/>
</g>
</svg>
